<?xml version="1.0" encoding="iso-8859-1"?><svg xmlns="http://www.w3.org/2000/svg" viewBox="0 0 284.485 284.485"><g fill="#21b7ff"><path d="M107.338 115.994C89.839 82.788 164.515 15.089 107.338 0c16.142 30.464-57.367 100.822 0 115.994zM149.024 117.781c-10.559-22.766 41.603-65.439 3.934-77.451 9.747 20.888-41.724 65.375-3.934 77.451zM266.307 166.769c-7.908-11.629-21.764-18.222-38.071-18.083.042-1.742.067-3.487.067-5.236a5 5 0 00-5-5H16.555a5 5 0 00-5 5c0 29.956 6.111 58.967 17.675 83.893 12.041 25.957 29.171 45.508 49.536 56.54a5.008 5.008 0 002.382.604h77.562a5.01 5.01 0 002.382-.604c13.142-7.119 24.925-17.803 34.874-31.449 38.257-.489 64.814-23.741 73.364-45.374 5.695-14.408 4.593-29.093-3.023-40.291zM61.355 224.665a6.5 6.5 0 01-8.632-3.16c-6.571-14.156-10.044-30.595-10.044-47.539a6.5 6.5 0 1113 0c0 15.066 3.056 29.612 8.836 42.065a6.503 6.503 0 01-3.16 8.634zm29.43 27.397a6.501 6.501 0 01-8.811 2.62c-6.175-3.344-11.855-7.975-16.883-13.763a6.5 6.5 0 019.815-8.525c4.001 4.606 8.462 8.259 13.26 10.858a6.499 6.499 0 012.619 8.81zm156.432-53.745c-4.678 11.838-17.964 23.788-36.304 28.386 7.612-16.587 12.816-34.96 15.429-54.205.678-.018 1.343-.032 1.981-.04l.473-.003c8.022 0 14.527 2.801 17.848 7.685 3.164 4.652 3.368 11.108.573 18.177z"/></g></svg>