<?xml version="1.0" encoding="utf-8"?><svg version="1.1" id="Layer_1" xmlns="http://www.w3.org/2000/svg" x="0" y="0" viewBox="0 0 330 330" xml:space="preserve"><style>.st0{fill:#fff}</style><path id="XMLID_17_" class="st0" d="M315 75H51.2l49.4-49.4c5.9-5.9 5.9-15.4 0-21.2-5.9-5.9-15.4-5.9-21.2 0l-75 75c-5.9 5.9-5.9 15.4 0 21.2l75 75c2.9 2.9 6.8 4.4 10.6 4.4s7.7-1.5 10.6-4.4c5.9-5.9 5.9-15.4 0-21.2L51.2 105H315c8.3 0 15-6.7 15-15s-6.7-15-15-15z"/><path id="XMLID_18_" class="st0" d="M250.6 154.4c-5.9-5.9-15.4-5.9-21.2 0s-5.9 15.4 0 21.2l49.4 49.4H15c-8.3 0-15 6.7-15 15s6.7 15 15 15h263.8l-49.4 49.4c-5.9 5.9-5.9 15.4 0 21.2 2.9 2.9 6.8 4.4 10.6 4.4s7.7-1.5 10.6-4.4l75-75c5.9-5.9 5.9-15.4 0-21.2l-75-75z"/></svg>