<?xml version="1.0" ?><svg viewBox="0 0 96 96" xmlns="http://www.w3.org/2000/svg"><path d="M88.568 39.799a4 4 0 00-5.656 0l-22.919 22.92-13.85 13.85h-.001c-7.811 7.811-20.473 7.811-28.284 0s-7.811-20.473 0-28.284l.007-.008L31.71 34.433 43.333 22.81l11.294-11.294c4.688-4.688 12.285-4.688 16.971 0 4.687 4.686 4.687 12.283 0 16.97L60.303 39.78 42.82 57.264l-7.992 7.992a4.001 4.001 0 01-5.657-5.657l7.992-7.992 25.949-25.949a4.001 4.001 0 00-5.657-5.657l-33.94 33.942c-4.686 4.686-4.687 12.284 0 16.971 4.686 4.686 12.285 4.686 16.971 0l36.77-36.77h-.001c7.811-7.811 7.812-20.474.001-28.284-7.812-7.812-20.474-7.812-28.284-.001l-.012.012-36.746 36.743a.092.092 0 01-.014.014c-10.935 10.936-10.935 28.665 0 39.599 10.935 10.935 28.663 10.935 39.598 0l36.77-36.77a4 4 0 000-5.658z"/></svg>