<?xml version="1.0" encoding="iso-8859-1"?><svg xmlns="http://www.w3.org/2000/svg" viewBox="0 0 268.725 268.725"><path d="M161.359 56.337c-7.041-7.049-18.458-7.049-25.498 0l-6.374 6.381-89.243 89.337.023.023-2.812 2.82s-8.968 9.032-29.216 74.399a839.477 839.477 0 00-1.52 4.941 1054.3 1054.3 0 00-.987 3.249c-.279.923-.556 1.836-.839 2.779a1425.89 1425.89 0 00-1.955 6.567c-1.455 4.937-5.009 16.07-.99 20.1 3.87 3.882 15.12.467 20.043-.993a1420.86 1420.86 0 006.519-1.952c.981-.296 1.932-.586 2.891-.878 1.031-.314 2.057-.626 3.062-.935 1.269-.39 2.52-.775 3.75-1.157l1.091-.34c62.192-19.365 73.357-28.453 74.285-29.284l.012-.01.066-.06 2.879-2.886.193.193 89.245-89.337-.001-.001 6.374-6.381c7.041-7.048 7.041-18.476 0-25.525l-50.998-51.05zm-57.96 163.445a15.648 15.648 0 01-.507.326l-.244.151-.243.147c-2.969 1.777-11.682 6.362-32.828 14.017a633.845 633.845 0 01-7.981 2.819l-30.06-30.091c.98-2.84 1.929-5.551 2.826-8.041 7.638-21.235 12.219-29.974 13.986-32.939l.121-.2a36.384 36.384 0 01.3-.484c.071-.111.14-.217.193-.296l2.2-2.206 54.485 54.542-2.248 2.255zM263.351 56.337l-50.997-51.05c-7.041-7.048-18.456-7.048-25.498 0L174.108 18.05c-7.041 7.048-7.041 18.476 0 25.524l50.996 51.05c7.04 7.048 18.457 7.048 25.498 0l12.749-12.762c7.041-7.049 7.041-18.477 0-25.525z" fill="#fff" fill-rule="evenodd" clip-rule="evenodd"/></svg>