<?xml version="1.0" encoding="utf-8"?><svg xmlns="http://www.w3.org/2000/svg" viewBox="0 0 77 82"><path d="M38.4 7.3C20.5 7.3 6 21.8 6 39.7s14.5 32.4 32.4 32.4 32.4-14.5 32.4-32.4S56.3 7.3 38.4 7.3zm2.8 49.9c-.2.6-.6 1-1 1.4-.4.4-.9.7-1.5.9-.6.2-1.2.3-1.8.3-.7 0-1.3-.1-1.8-.3-.6-.2-1-.5-1.5-.9-.4-.4-.7-.9-1-1.4-.2-.5-.4-1.1-.4-1.8s.1-1.2.4-1.8c.2-.5.6-1 1-1.4.4-.4.9-.7 1.5-1 .6-.2 1.2-.4 1.8-.4.6 0 1.2.1 1.8.4.6.2 1 .6 1.5 1 .4.4.7.9 1 1.4.2.5.4 1.1.4 1.8s-.1 1.3-.4 1.8zm7.1-23.5c-.4 1-.8 1.8-1.4 2.5-.6.7-1.2 1.3-1.8 1.9-.7.5-1.3 1-1.9 1.5-.6.4-1.1.9-1.6 1.3-.4.4-.7.9-.9 1.5L40 46h-5.5l-.6-4.2c-.1-.9-.1-1.6.3-2.2.3-.6.7-1.2 1.3-1.7.5-.5 1.2-1 1.8-1.5.7-.5 1.3-1 1.9-1.5.6-.5 1.1-1.1 1.5-1.8.4-.7.6-1.4.6-2.3 0-1-.3-1.9-1-2.5s-1.6-.9-2.8-.9c-.9 0-1.7.1-2.3.3-.6.2-1.2.4-1.6.6l-1.2.6c-.3.2-.7.3-1 .3-.8 0-1.3-.3-1.7-1l-2.1-3.3c.6-.5 1.3-1 2.1-1.5s1.6-.9 2.4-1.2c.9-.4 1.8-.6 2.8-.8 1-.2 2.1-.3 3.3-.3 1.6 0 3.1.2 4.4.7 1.3.4 2.4 1.1 3.4 1.9.9.8 1.6 1.8 2.1 2.9.5 1.1.7 2.4.7 3.8.1 1.2-.1 2.3-.5 3.3z" fill="#fff"/></svg>