<?xml version="1.0" encoding="utf-8"?><svg version="1.1" id="Capa_1" xmlns="http://www.w3.org/2000/svg" x="0" y="0" viewBox="0 0 107.2 108.7" xml:space="preserve"><style>.st0{fill:#21b7ff}</style><path class="st0" d="M77.9 26.4c3.8 0 6.8-3 6.8-6.8v-7.1c0-3.8-3-6.8-6.8-6.8s-6.8 3-6.8 6.8v7.1c0 3.8 3 6.8 6.8 6.8z"/><path class="st0" d="M102.1 17.5H88.4V21c0 5.7-4.6 10.4-10.3 10.4-5.7 0-10.3-4.6-10.3-10.4v-3.5H40.1V21c0 5.7-4.6 10.4-10.4 10.4S19.4 26.8 19.4 21v-3.5l-13.8-.2v86.4H102.2l-.1-86.2zm-6.8 79.3H12.5V41.6h82.8v55.2z"/><path class="st0" d="M29.6 26.4c3.8 0 6.8-3 6.8-6.8v-7.1c0-3.8-3-6.8-6.8-6.8s-6.8 3-6.8 6.8v7.1c0 3.8 3 6.8 6.8 6.8zM40.1 49H51v9.6H40.1zM57.7 49h10.9v9.6H57.7zM74 49h10.9v9.6H74zM40.1 65H51v9.6H40.1zM57.7 65h10.9v9.6H57.7zM74 65h10.9v9.6H74zM40.1 81.2H51v9.6H40.1zM22.8 65h10.9v9.6H22.8zM22.8 81.2h10.9v9.6H22.8zM57.7 81.2h10.9v9.6H57.7zM74 81.2h10.9v9.6H74z"/></svg>