<?xml version="1.0" encoding="utf-8"?><svg version="1.1" id="Capa_1" xmlns="http://www.w3.org/2000/svg" x="0" y="0" viewBox="0 0 107.2 108.7" xml:space="preserve"><style>.st0{fill:#fff}</style><path class="st0" d="M86.9 59.8c-6-7.3-12.9-9.5-17.5-10 6.3-2 11-8.3 11-15.7 0-9-6.9-16.4-15.4-16.4S49.6 25 49.6 34c0 7.4 4.6 13.7 11 15.7-4.5.6-11.4 2.8-17.5 10-10.1 12.1-2.3 14-2.3 14s6.4 3.4 24.1 3.6h.2c17.7-.2 24.1-3.6 24.1-3.6s7.8-1.8-2.3-13.9zm-22 15.9l-7.6-7.6 6.4-15.4h-.1l-2.5-2.9c1.2.5 2.5.7 3.7.7 1.3 0 2.6-.3 3.7-.7L66 52.7h-.1l6.4 15.4-7.4 7.6z"/><path class="st0" d="M64.1 3.4c-22.5 0-40.8 18.3-40.8 40.8 0 7.8 2.2 15.1 6 21.3l-1.2-1.1s2.5 2.4-.7 5.5L5.8 91.5S.4 97.8 4.1 102l2.2 2.2s5.3 3.3 10.1-1.2c4.8-4.4 22.8-22.7 22.8-22.7s2.1-2.1 5.2-.4C50.2 83.2 57 85 64.1 85c22.5 0 40.8-18.3 40.8-40.8S86.6 3.4 64.1 3.4zm0 73.6C46 77 31.3 62.3 31.3 44.2S46 11.4 64.1 11.4s32.8 14.7 32.8 32.8C96.9 62.3 82.2 77 64.1 77z"/></svg>