<?xml version="1.0" encoding="utf-8"?><svg version="1.1" id="Capa_1" xmlns="http://www.w3.org/2000/svg" x="0" y="0" viewBox="0 0 107.2 108.7" xml:space="preserve"><style>.st0{fill:#21b7ff}</style><path class="st0" d="M31.6 60l-5-5 4.1-10-1.6-1.9c.8.2 1.6.5 2.4.5s1.7-.1 2.4-.5l-1.6 1.8 4.1 10-4.8 5.1c3 0 6-.1 8.7-.5V59c0-4.5 1.8-8.6 4.7-11.6-2.3-2.3-5.4-4.4-9.1-5.2C39 40 41.3 35.8 41.3 32c0-5.4-4.4-9.8-9.8-9.8s-9.8 4.4-9.8 9.8c0 3.9 2.2 8.1 5.4 10.2-7.4 2-13.1 8.6-13.1 13.6 0 2.7 8.8 4.2 17.6 4.2zM32.8 59zM67.3 58.9v.5c2.7.4 5.7.5 8.7.5l-5-5 4.1-10-1.6-1.8c.7.2 1.6.5 2.4.5s1.7-.1 2.4-.5l-1.6 1.8 4.2 10L76 60c8.8 0 17.7-1.5 17.7-4.4 0-5-5.7-11.6-13.3-13.5 3.1-2.2 5.4-6.4 5.4-10.2 0-5.4-4.4-9.8-9.8-9.8s-9.8 4.4-9.8 9.8c0 3.9 2.2 8.1 5.4 10.2-3.6 1-6.8 2.9-9.1 5.2 3 3 4.8 7.1 4.8 11.6zM74.8 59zM94.8 59l7.1 6.5H65.7c-.4.9-.9 1.7-1.5 2.5 1.4.7 2.7 1.6 3.9 2.5h36.7v-5l-10-6.5zM43.4 68c-.6-.8-1.1-1.6-1.5-2.5H5.7l7.1-6.5-10.1 6.5v5h36.7c1.3-.9 2.6-1.8 4-2.5z"/><path class="st0" d="M58.5 69.2c3.5-2.3 5.9-6.9 5.9-11.1 0-5.9-4.7-10.6-10.6-10.6s-10.6 4.7-10.6 10.6c0 4.1 2.4 8.7 5.9 11.1-8.3 2.1-14.5 9.3-14.5 14.7 0 6.3 38.4 6.3 38.4 0 0-5.4-6.2-12.6-14.5-14.7z"/></svg>