<?xml version="1.0" encoding="utf-8"?><svg xmlns="http://www.w3.org/2000/svg" viewBox="0 0 107.2 108.7"><path d="M82.5 56.2c5.1-3.5 8.7-10.3 8.7-16.4 0-8.7-7-15.7-15.7-15.7-6.2 0-11.5 3.6-14.1 8.8 1 1.3 1.7 2.9 1.7 4.6v12.9c1.4 2.3 3.3 4.3 5.4 5.8-1.9.5-3.7 1.2-5.4 2v11.1c0 4.1-3.3 7.4-7.4 7.4h-5.1l2.9 2.9v3c14.9 4.3 50.4 2.7 50.4-4.7 0-7.9-9.1-18.6-21.4-21.7zm-7 28.7l-8-8 6.7-16.2h-.1l-2.6-3c1.3.5 2.6.7 3.9.7 1.4 0 2.7-.3 3.9-.7l-2.6 3h-.1l6.7 16.2-7.8 8z"/><path d="M55.7 32.5H8c-2.7 0-5 2.2-5 5v31.8c0 2.7 2.2 5 5 5h21.8v4.3H14.5l-2 2v2h38.7v-2l-2-2H33.9v-4.3h21.8c2.7 0 5-2.2 5-5V37.5c0-2.8-2.3-5-5-5z"/></svg>