<?xml version="1.0" encoding="utf-8"?><svg version="1.1" id="Capa_1" xmlns="http://www.w3.org/2000/svg" x="0" y="0" viewBox="0 0 107.2 108.7" xml:space="preserve"><style>.st0{fill:#fff}</style><path class="st0" d="M73.9 30.4c3.2 0 5.8-2.5 5.8-5.8v-6c0-3.2-2.5-5.8-5.8-5.8s-5.8 2.5-5.8 5.8v6c0 3.3 2.6 5.8 5.8 5.8z"/><path class="st0" d="M94.4 22.9H82.8v3c0 4.8-3.9 8.8-8.7 8.8s-8.7-3.9-8.7-8.8v-3H41.9v3c0 4.8-3.9 8.8-8.8 8.8s-8.7-3.9-8.7-8.8v-3l-11.7-.2v73.1h81.6l.1-72.9zM88.6 90h-70V43.3h70V90z"/><path class="st0" d="M33 30.4c3.2 0 5.8-2.5 5.8-5.8v-6c0-3.2-2.5-5.8-5.8-5.8s-5.8 2.5-5.8 5.8v6c.1 3.3 2.6 5.8 5.8 5.8zM41.9 49.5h9.2v8.1h-9.2zM56.8 49.5H66v8.1h-9.2zM70.6 49.5h9.2v8.1h-9.2zM41.9 63.1h9.2v8.1h-9.2zM56.8 63.1H66v8.1h-9.2zM70.6 63.1h9.2v8.1h-9.2zM41.9 76.8h9.2v8.1h-9.2zM27.3 63.1h9.2v8.1h-9.2zM27.3 76.8h9.2v8.1h-9.2zM56.8 76.8H66v8.1h-9.2zM70.6 76.8h9.2v8.1h-9.2z"/></svg>