<?xml version="1.0" encoding="utf-8"?><svg xmlns="http://www.w3.org/2000/svg" viewBox="0 0 107.2 108.7"><path d="M99.3 87.8l-21-21V20c0-3.1-2.5-5.7-5.7-5.7H34.5c-.9-4.3-4.7-7.6-9.3-7.6s-8.4 3.3-9.3 7.6h-.2c-3.1 0-5.7 2.5-5.7 5.7v72c0 3.1 2.5 5.7 5.7 5.7h56.9c3.1 0 5.7-2.5 5.7-5.7v-8.8L91.1 96c1.1 1.1 2.6 1.7 4.1 1.7s3-.6 4.1-1.7c2.3-2.3 2.3-5.9 0-8.2zM25.2 10.5c2.5 0 4.6 1.6 5.4 3.8H19.8c.8-2.2 2.9-3.8 5.4-3.8zM74.5 92c0 1-.8 1.9-1.9 1.9H15.7c-1 0-1.9-.8-1.9-1.9V20c0-1 .8-1.9 1.9-1.9h15.2V39c0 1-.8 1.9-1.9 1.9s-1.9-.8-1.9-1.9V21.9h-3.8V39c0 3.1 2.5 5.7 5.7 5.7s5.7-2.5 5.7-5.7V18.1h37.9c1 0 1.9.8 1.9 1.9v43l-5.7-5.7V23.8c0-1-.8-1.9-1.9-1.9H38.4v3.8H65v28.2l-10.5-5.3c-.5-.3-1.2-.3-1.7 0-.1.1-.2.1-.3.2l-5.4 4-3-10.6c-.1-.3-.3-.6-.5-.8-.7-.7-1.9-.7-2.7 0l-5.1 5.1H21.4c-1 0-1.9.8-1.9 1.9v39.8c0 1 .8 1.9 1.9 1.9h45.5c1 0 1.9-.8 1.9-1.9V73.7l5.7 5.7V92zM59.7 58.2l-1.8-3.7 3.7 1.8-1.9 1.9zM65 69.9v16.4H23.3v-36h13.3c.5 0 1-.2 1.3-.6l3.4-3.4 2.9 10.2.3.6c.6.8 1.8 1 2.7.4l5.8-4.3 4.5 9.1c.1.2.2.3.4.5l7.1 7.1zm-3.2-8.5l2.9-2.9 25 25-2.9 2.9-25-25zm34.8 31.9c-.8.8-2.1.8-2.9 0l-4.2-4.2 2.9-2.9 4.2 4.2c.8.9.8 2.1 0 2.9z" fill="#21b7ff"/></svg>