<?xml version="1.0" encoding="utf-8"?><svg version="1.1" id="Capa_1" xmlns="http://www.w3.org/2000/svg" x="0" y="0" viewBox="0 0 512 512" xml:space="preserve"><style>.st3{fill:#59474e}</style><path d="M453.1 322.1V75.7c0-16.3-13.2-29.6-29.6-29.6H88.4c-16.3 0-29.6 13.2-29.6 29.6v364.7c0 16.3 13.2 29.6 29.6 29.6h216.8l147.9-147.9z" fill="#f0c419"/><circle cx="256" cy="46.1" r="39.4" fill="#4482c3"/><path d="M453.1 322.1L305.3 469.9V351.6c0-16.3 13.2-29.6 29.6-29.6l118.2.1z" fill="#f29c1f"/><path class="st3" d="M118 144.7h69c5.4 0 9.9-4.4 9.9-9.9 0-5.4-4.4-9.9-9.9-9.9h-69c-5.4 0-9.9 4.4-9.9 9.9 0 5.4 4.5 9.9 9.9 9.9zM118 193.9h246.4c5.4 0 9.9-4.4 9.9-9.9 0-5.4-4.4-9.9-9.9-9.9H118c-5.4 0-9.9 4.4-9.9 9.9s4.5 9.9 9.9 9.9zM364.4 223.5H118c-5.4 0-9.9 4.4-9.9 9.9 0 5.4 4.4 9.9 9.9 9.9h246.4c5.4 0 9.9-4.4 9.9-9.9s-4.4-9.9-9.9-9.9zM364.4 272.8H118c-5.4 0-9.9 4.4-9.9 9.9s4.4 9.9 9.9 9.9h246.4c5.4 0 9.9-4.4 9.9-9.9s-4.4-9.9-9.9-9.9zM157.4 361.5H118c-5.4 0-9.9 4.4-9.9 9.9 0 5.4 4.4 9.9 9.9 9.9h39.4c5.4 0 9.9-4.4 9.9-9.9s-4.4-9.9-9.9-9.9z"/></svg>