<?xml version="1.0" encoding="utf-8"?><svg version="1.1" id="Layer_1" xmlns="http://www.w3.org/2000/svg" x="0" y="0" viewBox="0 0 174.1 165.2" xml:space="preserve"><style>.st0{fill:#249100}</style><path class="st0" d="M81.6 11.3c36.4 0 66.1 29.6 66.1 66.1 0 1.6 1.3 3 3 3 1.6 0 3-1.3 3-3 0-39.7-32.3-72-72-72s-72 32.3-72 72 32.3 72 72 72c1.6 0 3-1.3 3-3 0-1.6-1.3-3-3-3-36.4 0-66-29.6-66-66-.1-36.4 29.5-66.1 65.9-66.1zm-8 72.4l13.6 8.9c1.5-1.5 2.3-3.5 2.3-5.6V41.9c0-4.4-3.6-8-8-8s-8 3.6-8 8v41.8m17.6 37.6c0-21.3 17.3-38.5 38.5-38.5s38.5 17.3 38.5 38.5-17.3 38.5-38.5 38.5-38.5-17.2-38.5-38.5zm11.8.5l17.2 17.2c1 1 2.4 1.6 3.8 1.6s2.7-.5 3.8-1.6l28.8-28.8c2.1-2.1 2.1-5.4 0-7.5-2.1-2.1-5.4-2.1-7.5 0l-25.1 25.1-13.4-13.4c-2.1-2.1-5.4-2.1-7.5 0-2.2 2-2.2 5.4-.1 7.4z"/><path class="st0" d="M89.6 76.6v14.2c0 1-.8 1.7-1.7 1.7H43.6c-4.4 0-8-3.6-8-8s3.6-8 8-8h46z"/></svg>