<?xml version="1.0" encoding="utf-8"?><svg version="1.1" id="Capa_1" xmlns="http://www.w3.org/2000/svg" x="0" y="0" viewBox="0 0 82 84" xml:space="preserve"><style>.st0{fill:#21b7ff}</style><path class="st0" d="M33.2 40.6H11.7C8.5 40.6 6 38 6 34.9V18.4c0-3.2 2.6-5.7 5.7-5.7h21.5c3.2 0 5.7 2.6 5.7 5.7v16.5c0 3.1-2.6 5.7-5.7 5.7zM71.8 40.6H50.3c-3.2 0-5.7-2.6-5.7-5.7V18.4c0-3.2 2.6-5.7 5.7-5.7h21.5c3.2 0 5.7 2.6 5.7 5.7v16.5c0 3.1-2.5 5.7-5.7 5.7zM33.2 72.7H11.7C8.5 72.7 6 70.1 6 67V50.5c0-3.2 2.6-5.7 5.7-5.7h21.5c3.2 0 5.7 2.6 5.7 5.7V67c0 3.1-2.6 5.7-5.7 5.7zM71.8 72.7H50.3c-3.2 0-5.7-2.6-5.7-5.7V50.5c0-3.2 2.6-5.7 5.7-5.7h21.5c3.2 0 5.7 2.6 5.7 5.7V67c0 3.1-2.5 5.7-5.7 5.7z"/></svg>