<?xml version="1.0" encoding="utf-8"?><svg version="1.1" id="Capa_1" xmlns="http://www.w3.org/2000/svg" x="0" y="0" viewBox="0 0 135 138" xml:space="preserve"><style>.st0{fill:#21b7ff}</style><path class="st0" d="M79.2 65.4c5.1-5.7 8.2-13.3 8.2-21.5 0-17.9-14.5-32.3-32.3-32.3-17.9 0-32.3 14.5-32.3 32.3 0 7.9 2.8 15.1 7.5 20.7C.7 79.9 1.4 123.1 1.4 123.1h107.4s-1-41.7-29.6-57.7zm-33-.4c-7.9-3.5-13.3-11.3-13.3-20.4 0-12.3 10-22.3 22.3-22.3s22.3 10 22.3 22.3c0 9.4-5.8 17.4-14 20.7 31.1 6.8 32 47.1 32 47.1h-81c.1 0-.6-41.6 31.7-47.4zM123.8 52.1l6.9-6.9c1.3-1.3 1.3-3.4 0-4.7l-.7-.7a3.32 3.32 0 00-4.7 0l-6.9 6.9-6.9-6.9a3.32 3.32 0 00-4.7 0l-.7.7a3.32 3.32 0 000 4.7l6.9 6.9-6.9 6.9a3.32 3.32 0 000 4.7l.7.7c1.3 1.3 3.4 1.3 4.7 0l6.9-6.9 6.9 6.9c1.3 1.3 3.4 1.3 4.7 0l.7-.7c1.3-1.3 1.3-3.4 0-4.7l-6.9-6.9z"/></svg>