<svg width="1440" height="802" viewBox="0 0 1440 802" fill="none" xmlns="http://www.w3.org/2000/svg">
<circle cx="1280.5" cy="649.5" r="120.5" fill="#59DC76"/>
<circle cx="1423" cy="607" r="194.5" stroke="#0F2F44"/>
<circle cx="65" cy="181" r="149" fill="#59DC76"/>
<circle cx="40.5" cy="155.5" r="155" stroke="#0F2F44"/>
<circle cx="1215" cy="77" r="45" fill="#0F2F44"/>
<circle opacity="0.3" cx="1215" cy="747" r="55" fill="#0F2F44"/>
<circle opacity="0.75" cx="185.319" cy="205.319" r="49.3194" fill="url(#paint0_linear_2038_4689)"/>
<line x1="236.5" y1="120.5" x2="329.194" y2="120.5" stroke="#0F2F44" stroke-width="3" stroke-linecap="round"/>
<line x1="260.5" y1="102.5" x2="353.194" y2="102.5" stroke="#0F2F44" stroke-width="3" stroke-linecap="round"/>
<line x1="1226.22" y1="675.5" x2="1133.53" y2="675.5" stroke="#0F2F44" stroke-width="3" stroke-linecap="round"/>
<line x1="1201.19" y1="693.167" x2="1108.5" y2="693.167" stroke="#0F2F44" stroke-width="3" stroke-linecap="round"/>
<path d="M412.361 622.681C412.361 624.713 410.713 626.361 408.681 626.361C406.648 626.361 405 624.713 405 622.681C405 620.648 406.648 619 408.681 619C410.713 619 412.361 620.648 412.361 622.681Z" fill="#D9D9D9"/>
<path d="M412.361 634.458C412.361 636.491 410.713 638.139 408.681 638.139C406.648 638.139 405 636.491 405 634.458C405 632.426 406.648 630.778 408.681 630.778C410.713 630.778 412.361 632.426 412.361 634.458Z" fill="#D9D9D9"/>
<path d="M412.361 646.236C412.361 648.269 410.713 649.917 408.681 649.917C406.648 649.917 405 648.269 405 646.236C405 644.203 406.648 642.556 408.681 642.556C410.713 642.556 412.361 644.203 412.361 646.236Z" fill="#D9D9D9"/>
<path d="M424.139 622.681C424.139 624.713 422.491 626.361 420.458 626.361C418.426 626.361 416.778 624.713 416.778 622.681C416.778 620.648 418.426 619 420.458 619C422.491 619 424.139 620.648 424.139 622.681Z" fill="#D9D9D9"/>
<path d="M424.139 634.458C424.139 636.491 422.491 638.139 420.458 638.139C418.426 638.139 416.778 636.491 416.778 634.458C416.778 632.426 418.426 630.778 420.458 630.778C422.491 630.778 424.139 632.426 424.139 634.458Z" fill="#D9D9D9"/>
<path d="M424.139 646.236C424.139 648.269 422.491 649.917 420.458 649.917C418.426 649.917 416.778 648.269 416.778 646.236C416.778 644.203 418.426 642.556 420.458 642.556C422.491 642.556 424.139 644.203 424.139 646.236Z" fill="#D9D9D9"/>
<path d="M435.917 622.681C435.917 624.713 434.269 626.361 432.236 626.361C430.203 626.361 428.556 624.713 428.556 622.681C428.556 620.648 430.203 619 432.236 619C434.269 619 435.917 620.648 435.917 622.681Z" fill="#D9D9D9"/>
<path d="M435.917 634.458C435.917 636.491 434.269 638.139 432.236 638.139C430.203 638.139 428.556 636.491 428.556 634.458C428.556 632.426 430.203 630.778 432.236 630.778C434.269 630.778 435.917 632.426 435.917 634.458Z" fill="#D9D9D9"/>
<path d="M435.917 646.236C435.917 648.269 434.269 649.917 432.236 649.917C430.203 649.917 428.556 648.269 428.556 646.236C428.556 644.203 430.203 642.556 432.236 642.556C434.269 642.556 435.917 644.203 435.917 646.236Z" fill="#D9D9D9"/>
<path d="M447.694 622.681C447.694 624.713 446.047 626.361 444.014 626.361C441.981 626.361 440.333 624.713 440.333 622.681C440.333 620.648 441.981 619 444.014 619C446.047 619 447.694 620.648 447.694 622.681Z" fill="#D9D9D9"/>
<path d="M447.694 634.458C447.694 636.491 446.047 638.139 444.014 638.139C441.981 638.139 440.333 636.491 440.333 634.458C440.333 632.426 441.981 630.778 444.014 630.778C446.047 630.778 447.694 632.426 447.694 634.458Z" fill="#D9D9D9"/>
<path d="M447.694 646.236C447.694 648.269 446.047 649.917 444.014 649.917C441.981 649.917 440.333 648.269 440.333 646.236C440.333 644.203 441.981 642.556 444.014 642.556C446.047 642.556 447.694 644.203 447.694 646.236Z" fill="#D9D9D9"/>
<path d="M459.472 622.681C459.472 624.713 457.824 626.361 455.792 626.361C453.759 626.361 452.111 624.713 452.111 622.681C452.111 620.648 453.759 619 455.792 619C457.824 619 459.472 620.648 459.472 622.681Z" fill="#D9D9D9"/>
<path d="M459.472 634.458C459.472 636.491 457.824 638.139 455.792 638.139C453.759 638.139 452.111 636.491 452.111 634.458C452.111 632.426 453.759 630.778 455.792 630.778C457.824 630.778 459.472 632.426 459.472 634.458Z" fill="#D9D9D9"/>
<path d="M459.472 646.236C459.472 648.269 457.824 649.917 455.792 649.917C453.759 649.917 452.111 648.269 452.111 646.236C452.111 644.203 453.759 642.556 455.792 642.556C457.824 642.556 459.472 644.203 459.472 646.236Z" fill="#D9D9D9"/>
<path d="M471.25 622.681C471.25 624.713 469.602 626.361 467.569 626.361C465.537 626.361 463.889 624.713 463.889 622.681C463.889 620.648 465.537 619 467.569 619C469.602 619 471.25 620.648 471.25 622.681Z" fill="#D9D9D9"/>
<path d="M471.25 634.458C471.25 636.491 469.602 638.139 467.569 638.139C465.537 638.139 463.889 636.491 463.889 634.458C463.889 632.426 465.537 630.778 467.569 630.778C469.602 630.778 471.25 632.426 471.25 634.458Z" fill="#D9D9D9"/>
<path d="M471.25 646.236C471.25 648.269 469.602 649.917 467.569 649.917C465.537 649.917 463.889 648.269 463.889 646.236C463.889 644.203 465.537 642.556 467.569 642.556C469.602 642.556 471.25 644.203 471.25 646.236Z" fill="#D9D9D9"/>
<path d="M960.361 159.681C960.361 161.713 958.713 163.361 956.681 163.361C954.648 163.361 953 161.713 953 159.681C953 157.648 954.648 156 956.681 156C958.713 156 960.361 157.648 960.361 159.681Z" fill="#D9D9D9"/>
<path d="M960.361 171.458C960.361 173.491 958.713 175.139 956.681 175.139C954.648 175.139 953 173.491 953 171.458C953 169.426 954.648 167.778 956.681 167.778C958.713 167.778 960.361 169.426 960.361 171.458Z" fill="#D9D9D9"/>
<path d="M960.361 183.236C960.361 185.269 958.713 186.917 956.681 186.917C954.648 186.917 953 185.269 953 183.236C953 181.203 954.648 179.556 956.681 179.556C958.713 179.556 960.361 181.203 960.361 183.236Z" fill="#D9D9D9"/>
<path d="M972.139 159.681C972.139 161.713 970.491 163.361 968.458 163.361C966.426 163.361 964.778 161.713 964.778 159.681C964.778 157.648 966.426 156 968.458 156C970.491 156 972.139 157.648 972.139 159.681Z" fill="#D9D9D9"/>
<path d="M972.139 171.458C972.139 173.491 970.491 175.139 968.458 175.139C966.426 175.139 964.778 173.491 964.778 171.458C964.778 169.426 966.426 167.778 968.458 167.778C970.491 167.778 972.139 169.426 972.139 171.458Z" fill="#D9D9D9"/>
<path d="M972.139 183.236C972.139 185.269 970.491 186.917 968.458 186.917C966.426 186.917 964.778 185.269 964.778 183.236C964.778 181.203 966.426 179.556 968.458 179.556C970.491 179.556 972.139 181.203 972.139 183.236Z" fill="#D9D9D9"/>
<path d="M983.917 159.681C983.917 161.713 982.269 163.361 980.236 163.361C978.203 163.361 976.556 161.713 976.556 159.681C976.556 157.648 978.203 156 980.236 156C982.269 156 983.917 157.648 983.917 159.681Z" fill="#D9D9D9"/>
<path d="M983.917 171.458C983.917 173.491 982.269 175.139 980.236 175.139C978.203 175.139 976.556 173.491 976.556 171.458C976.556 169.426 978.203 167.778 980.236 167.778C982.269 167.778 983.917 169.426 983.917 171.458Z" fill="#D9D9D9"/>
<path d="M983.917 183.236C983.917 185.269 982.269 186.917 980.236 186.917C978.203 186.917 976.556 185.269 976.556 183.236C976.556 181.203 978.203 179.556 980.236 179.556C982.269 179.556 983.917 181.203 983.917 183.236Z" fill="#D9D9D9"/>
<path d="M995.694 159.681C995.694 161.713 994.047 163.361 992.014 163.361C989.981 163.361 988.333 161.713 988.333 159.681C988.333 157.648 989.981 156 992.014 156C994.047 156 995.694 157.648 995.694 159.681Z" fill="#D9D9D9"/>
<path d="M995.694 171.458C995.694 173.491 994.047 175.139 992.014 175.139C989.981 175.139 988.333 173.491 988.333 171.458C988.333 169.426 989.981 167.778 992.014 167.778C994.047 167.778 995.694 169.426 995.694 171.458Z" fill="#D9D9D9"/>
<path d="M995.694 183.236C995.694 185.269 994.047 186.917 992.014 186.917C989.981 186.917 988.333 185.269 988.333 183.236C988.333 181.203 989.981 179.556 992.014 179.556C994.047 179.556 995.694 181.203 995.694 183.236Z" fill="#D9D9D9"/>
<path d="M1007.47 159.681C1007.47 161.713 1005.82 163.361 1003.79 163.361C1001.76 163.361 1000.11 161.713 1000.11 159.681C1000.11 157.648 1001.76 156 1003.79 156C1005.82 156 1007.47 157.648 1007.47 159.681Z" fill="#D9D9D9"/>
<path d="M1007.47 171.458C1007.47 173.491 1005.82 175.139 1003.79 175.139C1001.76 175.139 1000.11 173.491 1000.11 171.458C1000.11 169.426 1001.76 167.778 1003.79 167.778C1005.82 167.778 1007.47 169.426 1007.47 171.458Z" fill="#D9D9D9"/>
<path d="M1007.47 183.236C1007.47 185.269 1005.82 186.917 1003.79 186.917C1001.76 186.917 1000.11 185.269 1000.11 183.236C1000.11 181.203 1001.76 179.556 1003.79 179.556C1005.82 179.556 1007.47 181.203 1007.47 183.236Z" fill="#D9D9D9"/>
<path d="M1019.25 159.681C1019.25 161.713 1017.6 163.361 1015.57 163.361C1013.54 163.361 1011.89 161.713 1011.89 159.681C1011.89 157.648 1013.54 156 1015.57 156C1017.6 156 1019.25 157.648 1019.25 159.681Z" fill="#D9D9D9"/>
<path d="M1019.25 171.458C1019.25 173.491 1017.6 175.139 1015.57 175.139C1013.54 175.139 1011.89 173.491 1011.89 171.458C1011.89 169.426 1013.54 167.778 1015.57 167.778C1017.6 167.778 1019.25 169.426 1019.25 171.458Z" fill="#D9D9D9"/>
<path d="M1019.25 183.236C1019.25 185.269 1017.6 186.917 1015.57 186.917C1013.54 186.917 1011.89 185.269 1011.89 183.236C1011.89 181.203 1013.54 179.556 1015.57 179.556C1017.6 179.556 1019.25 181.203 1019.25 183.236Z" fill="#D9D9D9"/>
<rect x="137" y="368.056" width="1168.94" height="4.41661" fill="#59DC76"/>
<circle cx="137" cy="371" r="22.0833" fill="#59DC76"/>
<circle cx="525.667" cy="372.472" r="22.0833" fill="#59DC76"/>
<circle cx="914.333" cy="371" r="22.0833" fill="#59DC76"/>
<circle cx="1303" cy="371" r="22.0833" fill="#59DC76"/>
<circle cx="331.333" cy="371" r="104" fill="white" stroke="#59DC76" stroke-width="4"/>
<path d="M263.456 398.071C263.456 397.051 263.686 396.136 264.146 395.326C264.606 394.506 265.231 393.866 266.021 393.406C266.821 392.946 267.706 392.716 268.676 392.716C269.816 392.716 270.811 392.991 271.661 393.541C272.511 394.091 273.131 394.871 273.521 395.881H271.886C271.596 395.251 271.176 394.766 270.626 394.426C270.086 394.086 269.436 393.916 268.676 393.916C267.946 393.916 267.291 394.086 266.711 394.426C266.131 394.766 265.676 395.251 265.346 395.881C265.016 396.501 264.851 397.231 264.851 398.071C264.851 398.901 265.016 399.631 265.346 400.261C265.676 400.881 266.131 401.361 266.711 401.701C267.291 402.041 267.946 402.211 268.676 402.211C269.436 402.211 270.086 402.046 270.626 401.716C271.176 401.376 271.596 400.891 271.886 400.261H273.521C273.131 401.261 272.511 402.036 271.661 402.586C270.811 403.126 269.816 403.396 268.676 403.396C267.706 403.396 266.821 403.171 266.021 402.721C265.231 402.261 264.606 401.626 264.146 400.816C263.686 400.006 263.456 399.091 263.456 398.071ZM276.918 402.196H280.578V403.306H275.553V392.851H276.918V402.196ZM283.393 392.851V403.306H282.028V392.851H283.393ZM287.084 393.961V397.456H290.894V398.581H287.084V402.181H291.344V403.306H285.719V392.836H291.344V393.961H287.084ZM301.63 403.306H300.265L294.775 394.981V403.306H293.41V392.836H294.775L300.265 401.146V392.836H301.63V403.306ZM310.392 392.851V393.961H307.542V403.306H306.177V393.961H303.312V392.851H310.392ZM315.387 403.411C314.697 403.411 314.077 403.291 313.527 403.051C312.987 402.801 312.562 402.461 312.252 402.031C311.942 401.591 311.782 401.086 311.772 400.516H313.227C313.277 401.006 313.477 401.421 313.827 401.761C314.187 402.091 314.707 402.256 315.387 402.256C316.037 402.256 316.547 402.096 316.917 401.776C317.297 401.446 317.487 401.026 317.487 400.516C317.487 400.116 317.377 399.791 317.157 399.541C316.937 399.291 316.662 399.101 316.332 398.971C316.002 398.841 315.557 398.701 314.997 398.551C314.307 398.371 313.752 398.191 313.332 398.011C312.922 397.831 312.567 397.551 312.267 397.171C311.977 396.781 311.832 396.261 311.832 395.611C311.832 395.041 311.977 394.536 312.267 394.096C312.557 393.656 312.962 393.316 313.482 393.076C314.012 392.836 314.617 392.716 315.297 392.716C316.277 392.716 317.077 392.961 317.697 393.451C318.327 393.941 318.682 394.591 318.762 395.401H317.262C317.212 395.001 317.002 394.651 316.632 394.351C316.262 394.041 315.772 393.886 315.162 393.886C314.592 393.886 314.127 394.036 313.767 394.336C313.407 394.626 313.227 395.036 313.227 395.566C313.227 395.946 313.332 396.256 313.542 396.496C313.762 396.736 314.027 396.921 314.337 397.051C314.657 397.171 315.102 397.311 315.672 397.471C316.362 397.661 316.917 397.851 317.337 398.041C317.757 398.221 318.117 398.506 318.417 398.896C318.717 399.276 318.867 399.796 318.867 400.456C318.867 400.966 318.732 401.446 318.462 401.896C318.192 402.346 317.792 402.711 317.262 402.991C316.732 403.271 316.107 403.411 315.387 403.411ZM328.19 403.411C327.5 403.411 326.88 403.291 326.33 403.051C325.79 402.801 325.365 402.461 325.055 402.031C324.745 401.591 324.585 401.086 324.575 400.516H326.03C326.08 401.006 326.28 401.421 326.63 401.761C326.99 402.091 327.51 402.256 328.19 402.256C328.84 402.256 329.35 402.096 329.72 401.776C330.1 401.446 330.29 401.026 330.29 400.516C330.29 400.116 330.18 399.791 329.96 399.541C329.74 399.291 329.465 399.101 329.135 398.971C328.805 398.841 328.36 398.701 327.8 398.551C327.11 398.371 326.555 398.191 326.135 398.011C325.725 397.831 325.37 397.551 325.07 397.171C324.78 396.781 324.635 396.261 324.635 395.611C324.635 395.041 324.78 394.536 325.07 394.096C325.36 393.656 325.765 393.316 326.285 393.076C326.815 392.836 327.42 392.716 328.1 392.716C329.08 392.716 329.88 392.961 330.5 393.451C331.13 393.941 331.485 394.591 331.565 395.401H330.065C330.015 395.001 329.805 394.651 329.435 394.351C329.065 394.041 328.575 393.886 327.965 393.886C327.395 393.886 326.93 394.036 326.57 394.336C326.21 394.626 326.03 395.036 326.03 395.566C326.03 395.946 326.135 396.256 326.345 396.496C326.565 396.736 326.83 396.921 327.14 397.051C327.46 397.171 327.905 397.311 328.475 397.471C329.165 397.661 329.72 397.851 330.14 398.041C330.56 398.221 330.92 398.506 331.22 398.896C331.52 399.276 331.67 399.796 331.67 400.456C331.67 400.966 331.535 401.446 331.265 401.896C330.995 402.346 330.595 402.711 330.065 402.991C329.535 403.271 328.91 403.411 328.19 403.411ZM335.043 393.961V397.456H338.853V398.581H335.043V402.181H339.303V403.306H333.678V392.836H339.303V393.961H335.043ZM346.874 403.306L344.384 399.031H342.734V403.306H341.369V392.851H344.744C345.534 392.851 346.199 392.986 346.739 393.256C347.289 393.526 347.699 393.891 347.969 394.351C348.239 394.811 348.374 395.336 348.374 395.926C348.374 396.646 348.164 397.281 347.744 397.831C347.334 398.381 346.714 398.746 345.884 398.926L348.509 403.306H346.874ZM342.734 397.936H344.744C345.484 397.936 346.039 397.756 346.409 397.396C346.779 397.026 346.964 396.536 346.964 395.926C346.964 395.306 346.779 394.826 346.409 394.486C346.049 394.146 345.494 393.976 344.744 393.976H342.734V397.936ZM359.135 392.851L355.19 403.306H353.615L349.67 392.851H351.125L354.41 401.866L357.695 392.851H359.135ZM361.996 393.961V397.456H365.806V398.581H361.996V402.181H366.256V403.306H360.631V392.836H366.256V393.961H361.996ZM371.577 392.851C372.717 392.851 373.702 393.066 374.532 393.496C375.372 393.916 376.012 394.521 376.452 395.311C376.902 396.101 377.127 397.031 377.127 398.101C377.127 399.171 376.902 400.101 376.452 400.891C376.012 401.671 375.372 402.271 374.532 402.691C373.702 403.101 372.717 403.306 371.577 403.306H368.322V392.851H371.577ZM371.577 402.181C372.927 402.181 373.957 401.826 374.667 401.116C375.377 400.396 375.732 399.391 375.732 398.101C375.732 396.801 375.372 395.786 374.652 395.056C373.942 394.326 372.917 393.961 371.577 393.961H369.687V402.181H371.577Z" fill="black"/>
<path d="M300.73 361.171H295.51V366.511H290.65V361.171H285.43V356.581H290.65V351.211H295.51V356.581H300.73V361.171ZM304.028 353.641C304.108 351.501 304.808 349.851 306.128 348.691C307.448 347.531 309.238 346.951 311.498 346.951C312.998 346.951 314.278 347.211 315.338 347.731C316.418 348.251 317.228 348.961 317.768 349.861C318.328 350.761 318.608 351.771 318.608 352.891C318.608 354.211 318.278 355.291 317.618 356.131C316.958 356.951 316.188 357.511 315.308 357.811V357.931C316.448 358.311 317.348 358.941 318.008 359.821C318.668 360.701 318.998 361.831 318.998 363.211C318.998 364.451 318.708 365.551 318.128 366.511C317.568 367.451 316.738 368.191 315.638 368.731C314.558 369.271 313.268 369.541 311.768 369.541C309.368 369.541 307.448 368.951 306.008 367.771C304.588 366.591 303.838 364.811 303.758 362.431H308.738C308.758 363.311 309.008 364.011 309.488 364.531C309.968 365.031 310.668 365.281 311.588 365.281C312.368 365.281 312.968 365.061 313.388 364.621C313.828 364.161 314.048 363.561 314.048 362.821C314.048 361.861 313.738 361.171 313.118 360.751C312.518 360.311 311.548 360.091 310.208 360.091H309.248V355.921H310.208C311.228 355.921 312.048 355.751 312.668 355.411C313.308 355.051 313.628 354.421 313.628 353.521C313.628 352.801 313.428 352.241 313.028 351.841C312.628 351.441 312.078 351.241 311.378 351.241C310.618 351.241 310.048 351.471 309.668 351.931C309.308 352.391 309.098 352.961 309.038 353.641H304.028ZM322.192 353.641C322.272 351.501 322.972 349.851 324.292 348.691C325.612 347.531 327.402 346.951 329.662 346.951C331.162 346.951 332.442 347.211 333.502 347.731C334.582 348.251 335.392 348.961 335.932 349.861C336.492 350.761 336.772 351.771 336.772 352.891C336.772 354.211 336.442 355.291 335.782 356.131C335.122 356.951 334.352 357.511 333.472 357.811V357.931C334.612 358.311 335.512 358.941 336.172 359.821C336.832 360.701 337.162 361.831 337.162 363.211C337.162 364.451 336.872 365.551 336.292 366.511C335.732 367.451 334.902 368.191 333.802 368.731C332.722 369.271 331.432 369.541 329.932 369.541C327.532 369.541 325.612 368.951 324.172 367.771C322.752 366.591 322.002 364.811 321.922 362.431H326.902C326.922 363.311 327.172 364.011 327.652 364.531C328.132 365.031 328.832 365.281 329.752 365.281C330.532 365.281 331.132 365.061 331.552 364.621C331.992 364.161 332.212 363.561 332.212 362.821C332.212 361.861 331.902 361.171 331.282 360.751C330.682 360.311 329.712 360.091 328.372 360.091H327.412V355.921H328.372C329.392 355.921 330.212 355.751 330.832 355.411C331.472 355.051 331.792 354.421 331.792 353.521C331.792 352.801 331.592 352.241 331.192 351.841C330.792 351.441 330.242 351.241 329.542 351.241C328.782 351.241 328.212 351.471 327.832 351.931C327.472 352.391 327.262 352.961 327.202 353.641H322.192ZM340.176 358.111C340.176 354.671 340.836 351.961 342.156 349.981C343.496 348.001 345.646 347.011 348.606 347.011C351.566 347.011 353.706 348.001 355.026 349.981C356.366 351.961 357.036 354.671 357.036 358.111C357.036 361.591 356.366 364.321 355.026 366.301C353.706 368.281 351.566 369.271 348.606 369.271C345.646 369.271 343.496 368.281 342.156 366.301C340.836 364.321 340.176 361.591 340.176 358.111ZM351.996 358.111C351.996 356.091 351.776 354.541 351.336 353.461C350.896 352.361 349.986 351.811 348.606 351.811C347.226 351.811 346.316 352.361 345.876 353.461C345.436 354.541 345.216 356.091 345.216 358.111C345.216 359.471 345.296 360.601 345.456 361.501C345.616 362.381 345.936 363.101 346.416 363.661C346.916 364.201 347.646 364.471 348.606 364.471C349.566 364.471 350.286 364.201 350.766 363.661C351.266 363.101 351.596 362.381 351.756 361.501C351.916 360.601 351.996 359.471 351.996 358.111Z" fill="black"/>
<circle cx="1108.67" cy="371" r="104" fill="white" stroke="#59DC76" stroke-width="4"/>
<path d="M1071.43 358.963H1066.21V364.303H1061.35V358.963H1056.13V354.373H1061.35V349.003H1066.21V354.373H1071.43V358.963ZM1089.97 349.723H1080.61V353.863C1081.01 353.423 1081.57 353.063 1082.29 352.783C1083.01 352.503 1083.79 352.363 1084.63 352.363C1086.13 352.363 1087.37 352.703 1088.35 353.383C1089.35 354.063 1090.08 354.943 1090.54 356.023C1091 357.103 1091.23 358.273 1091.23 359.533C1091.23 361.873 1090.57 363.733 1089.25 365.113C1087.93 366.473 1086.07 367.153 1083.67 367.153C1082.07 367.153 1080.68 366.883 1079.5 366.343C1078.32 365.783 1077.41 365.013 1076.77 364.033C1076.13 363.053 1075.78 361.923 1075.72 360.643H1080.73C1080.85 361.263 1081.14 361.783 1081.6 362.203C1082.06 362.603 1082.69 362.803 1083.49 362.803C1084.43 362.803 1085.13 362.503 1085.59 361.903C1086.05 361.303 1086.28 360.503 1086.28 359.503C1086.28 358.523 1086.04 357.773 1085.56 357.253C1085.08 356.733 1084.38 356.473 1083.46 356.473C1082.78 356.473 1082.22 356.643 1081.78 356.983C1081.34 357.303 1081.05 357.733 1080.91 358.273H1075.96V345.223H1089.97V349.723ZM1100.09 362.413L1096.76 371.023H1093.49L1095.23 362.413H1100.09ZM1102.67 355.903C1102.67 352.463 1103.33 349.753 1104.65 347.773C1105.99 345.793 1108.14 344.803 1111.1 344.803C1114.06 344.803 1116.2 345.793 1117.52 347.773C1118.86 349.753 1119.53 352.463 1119.53 355.903C1119.53 359.383 1118.86 362.113 1117.52 364.093C1116.2 366.073 1114.06 367.063 1111.1 367.063C1108.14 367.063 1105.99 366.073 1104.65 364.093C1103.33 362.113 1102.67 359.383 1102.67 355.903ZM1114.49 355.903C1114.49 353.883 1114.27 352.333 1113.83 351.253C1113.39 350.153 1112.48 349.603 1111.1 349.603C1109.72 349.603 1108.81 350.153 1108.37 351.253C1107.93 352.333 1107.71 353.883 1107.71 355.903C1107.71 357.263 1107.79 358.393 1107.95 359.293C1108.11 360.173 1108.43 360.893 1108.91 361.453C1109.41 361.993 1110.14 362.263 1111.1 362.263C1112.06 362.263 1112.78 361.993 1113.26 361.453C1113.76 360.893 1114.09 360.173 1114.25 359.293C1114.41 358.393 1114.49 357.263 1114.49 355.903ZM1122.24 355.903C1122.24 352.463 1122.9 349.753 1124.22 347.773C1125.56 345.793 1127.71 344.803 1130.67 344.803C1133.63 344.803 1135.77 345.793 1137.09 347.773C1138.43 349.753 1139.1 352.463 1139.1 355.903C1139.1 359.383 1138.43 362.113 1137.09 364.093C1135.77 366.073 1133.63 367.063 1130.67 367.063C1127.71 367.063 1125.56 366.073 1124.22 364.093C1122.9 362.113 1122.24 359.383 1122.24 355.903ZM1134.06 355.903C1134.06 353.883 1133.84 352.333 1133.4 351.253C1132.96 350.153 1132.05 349.603 1130.67 349.603C1129.29 349.603 1128.38 350.153 1127.94 351.253C1127.5 352.333 1127.28 353.883 1127.28 355.903C1127.28 357.263 1127.36 358.393 1127.52 359.293C1127.68 360.173 1128 360.893 1128.48 361.453C1128.98 361.993 1129.71 362.263 1130.67 362.263C1131.63 362.263 1132.35 361.993 1132.83 361.453C1133.33 360.893 1133.66 360.173 1133.82 359.293C1133.98 358.393 1134.06 357.263 1134.06 355.903ZM1141.81 355.903C1141.81 352.463 1142.47 349.753 1143.79 347.773C1145.13 345.793 1147.28 344.803 1150.24 344.803C1153.2 344.803 1155.34 345.793 1156.66 347.773C1158 349.753 1158.67 352.463 1158.67 355.903C1158.67 359.383 1158 362.113 1156.66 364.093C1155.34 366.073 1153.2 367.063 1150.24 367.063C1147.28 367.063 1145.13 366.073 1143.79 364.093C1142.47 362.113 1141.81 359.383 1141.81 355.903ZM1153.63 355.903C1153.63 353.883 1153.41 352.333 1152.97 351.253C1152.53 350.153 1151.62 349.603 1150.24 349.603C1148.86 349.603 1147.95 350.153 1147.51 351.253C1147.07 352.333 1146.85 353.883 1146.85 355.903C1146.85 357.263 1146.93 358.393 1147.09 359.293C1147.25 360.173 1147.57 360.893 1148.05 361.453C1148.55 361.993 1149.28 362.263 1150.24 362.263C1151.2 362.263 1151.92 361.993 1152.4 361.453C1152.9 360.893 1153.23 360.173 1153.39 359.293C1153.55 358.393 1153.63 357.263 1153.63 355.903Z" fill="#59DC76"/>
<path d="M1063.38 403.189H1058.82L1057.98 405.514H1056.54L1060.32 395.119H1061.9L1065.66 405.514H1064.22L1063.38 403.189ZM1062.99 402.079L1061.1 396.799L1059.21 402.079H1062.99ZM1074.3 398.119C1074.3 398.989 1074 399.714 1073.4 400.294C1072.81 400.864 1071.91 401.149 1070.69 401.149H1068.68V405.514H1067.31V395.059H1070.69C1071.87 395.059 1072.76 395.344 1073.37 395.914C1073.99 396.484 1074.3 397.219 1074.3 398.119ZM1070.69 400.024C1071.45 400.024 1072.01 399.859 1072.37 399.529C1072.73 399.199 1072.91 398.729 1072.91 398.119C1072.91 396.829 1072.17 396.184 1070.69 396.184H1068.68V400.024H1070.69ZM1082.99 398.119C1082.99 398.989 1082.69 399.714 1082.09 400.294C1081.5 400.864 1080.59 401.149 1079.37 401.149H1077.36V405.514H1076V395.059H1079.37C1080.55 395.059 1081.45 395.344 1082.06 395.914C1082.68 396.484 1082.99 397.219 1082.99 398.119ZM1079.37 400.024C1080.13 400.024 1080.69 399.859 1081.05 399.529C1081.41 399.199 1081.59 398.729 1081.59 398.119C1081.59 396.829 1080.85 396.184 1079.37 396.184H1077.36V400.024H1079.37ZM1086.05 404.404H1089.71V405.514H1084.68V395.059H1086.05V404.404ZM1092.52 395.059V405.514H1091.16V395.059H1092.52ZM1094.34 400.279C1094.34 399.259 1094.57 398.344 1095.03 397.534C1095.49 396.714 1096.12 396.074 1096.91 395.614C1097.71 395.154 1098.59 394.924 1099.56 394.924C1100.7 394.924 1101.7 395.199 1102.55 395.749C1103.4 396.299 1104.02 397.079 1104.41 398.089H1102.77C1102.48 397.459 1102.06 396.974 1101.51 396.634C1100.97 396.294 1100.32 396.124 1099.56 396.124C1098.83 396.124 1098.18 396.294 1097.6 396.634C1097.02 396.974 1096.56 397.459 1096.23 398.089C1095.9 398.709 1095.74 399.439 1095.74 400.279C1095.74 401.109 1095.9 401.839 1096.23 402.469C1096.56 403.089 1097.02 403.569 1097.6 403.909C1098.18 404.249 1098.83 404.419 1099.56 404.419C1100.32 404.419 1100.97 404.254 1101.51 403.924C1102.06 403.584 1102.48 403.099 1102.77 402.469H1104.41C1104.02 403.469 1103.4 404.244 1102.55 404.794C1101.7 405.334 1100.7 405.604 1099.56 405.604C1098.59 405.604 1097.71 405.379 1096.91 404.929C1096.12 404.469 1095.49 403.834 1095.03 403.024C1094.57 402.214 1094.34 401.299 1094.34 400.279ZM1112.62 403.189H1108.06L1107.22 405.514H1105.78L1109.56 395.119H1111.13L1114.9 405.514H1113.46L1112.62 403.189ZM1112.23 402.079L1110.34 396.799L1108.45 402.079H1112.23ZM1122.98 395.059V396.169H1120.13V405.514H1118.77V396.169H1115.9V395.059H1122.98ZM1126.03 395.059V405.514H1124.66V395.059H1126.03ZM1133.09 405.619C1132.12 405.619 1131.24 405.394 1130.44 404.944C1129.64 404.484 1129 403.849 1128.53 403.039C1128.07 402.219 1127.84 401.299 1127.84 400.279C1127.84 399.259 1128.07 398.344 1128.53 397.534C1129 396.714 1129.64 396.079 1130.44 395.629C1131.24 395.169 1132.12 394.939 1133.09 394.939C1134.07 394.939 1134.96 395.169 1135.76 395.629C1136.56 396.079 1137.19 396.709 1137.65 397.519C1138.11 398.329 1138.34 399.249 1138.34 400.279C1138.34 401.309 1138.11 402.229 1137.65 403.039C1137.19 403.849 1136.56 404.484 1135.76 404.944C1134.96 405.394 1134.07 405.619 1133.09 405.619ZM1133.09 404.434C1133.82 404.434 1134.48 404.264 1135.06 403.924C1135.65 403.584 1136.11 403.099 1136.44 402.469C1136.78 401.839 1136.95 401.109 1136.95 400.279C1136.95 399.439 1136.78 398.709 1136.44 398.089C1136.11 397.459 1135.65 396.974 1135.07 396.634C1134.49 396.294 1133.83 396.124 1133.09 396.124C1132.35 396.124 1131.69 396.294 1131.11 396.634C1130.53 396.974 1130.07 397.459 1129.73 398.089C1129.4 398.709 1129.24 399.439 1129.24 400.279C1129.24 401.109 1129.4 401.839 1129.73 402.469C1130.07 403.099 1130.53 403.584 1131.11 403.924C1131.7 404.264 1132.36 404.434 1133.09 404.434ZM1148.36 405.514H1147L1141.51 397.189V405.514H1140.14V395.044H1141.51L1147 403.354V395.044H1148.36V405.514ZM1154.01 405.619C1153.32 405.619 1152.7 405.499 1152.15 405.259C1151.61 405.009 1151.18 404.669 1150.87 404.239C1150.56 403.799 1150.4 403.294 1150.39 402.724H1151.85C1151.9 403.214 1152.1 403.629 1152.45 403.969C1152.81 404.299 1153.33 404.464 1154.01 404.464C1154.66 404.464 1155.17 404.304 1155.54 403.984C1155.92 403.654 1156.11 403.234 1156.11 402.724C1156.11 402.324 1156 401.999 1155.78 401.749C1155.56 401.499 1155.28 401.309 1154.95 401.179C1154.62 401.049 1154.18 400.909 1153.62 400.759C1152.93 400.579 1152.37 400.399 1151.95 400.219C1151.54 400.039 1151.19 399.759 1150.89 399.379C1150.6 398.989 1150.45 398.469 1150.45 397.819C1150.45 397.249 1150.6 396.744 1150.89 396.304C1151.18 395.864 1151.58 395.524 1152.1 395.284C1152.63 395.044 1153.24 394.924 1153.92 394.924C1154.9 394.924 1155.7 395.169 1156.32 395.659C1156.95 396.149 1157.3 396.799 1157.38 397.609H1155.88C1155.83 397.209 1155.62 396.859 1155.25 396.559C1154.88 396.249 1154.39 396.094 1153.78 396.094C1153.21 396.094 1152.75 396.244 1152.39 396.544C1152.03 396.834 1151.85 397.244 1151.85 397.774C1151.85 398.154 1151.95 398.464 1152.16 398.704C1152.38 398.944 1152.65 399.129 1152.96 399.259C1153.28 399.379 1153.72 399.519 1154.29 399.679C1154.98 399.869 1155.54 400.059 1155.96 400.249C1156.38 400.429 1156.74 400.714 1157.04 401.104C1157.34 401.484 1157.49 402.004 1157.49 402.664C1157.49 403.174 1157.35 403.654 1157.08 404.104C1156.81 404.554 1156.41 404.919 1155.88 405.199C1155.35 405.479 1154.73 405.619 1154.01 405.619Z" fill="black"/>
<circle cx="720" cy="371" r="104" fill="white" stroke="#59DC76" stroke-width="4"/>
<path d="M681.365 392.85V400.575C681.365 401.435 681.1 402.125 680.57 402.645C680.04 403.155 679.34 403.41 678.47 403.41C677.59 403.41 676.885 403.15 676.355 402.63C675.825 402.1 675.56 401.38 675.56 400.47H676.925C676.935 400.98 677.065 401.395 677.315 401.715C677.575 402.035 677.96 402.195 678.47 402.195C678.98 402.195 679.36 402.045 679.61 401.745C679.86 401.435 679.985 401.045 679.985 400.575V392.85H681.365ZM688.794 403.41C687.824 403.41 686.939 403.185 686.139 402.735C685.339 402.275 684.704 401.64 684.234 400.83C683.774 400.01 683.544 399.09 683.544 398.07C683.544 397.05 683.774 396.135 684.234 395.325C684.704 394.505 685.339 393.87 686.139 393.42C686.939 392.96 687.824 392.73 688.794 392.73C689.774 392.73 690.664 392.96 691.464 393.42C692.264 393.87 692.894 394.5 693.354 395.31C693.814 396.12 694.044 397.04 694.044 398.07C694.044 399.1 693.814 400.02 693.354 400.83C692.894 401.64 692.264 402.275 691.464 402.735C690.664 403.185 689.774 403.41 688.794 403.41ZM688.794 402.225C689.524 402.225 690.179 402.055 690.759 401.715C691.349 401.375 691.809 400.89 692.139 400.26C692.479 399.63 692.649 398.9 692.649 398.07C692.649 397.23 692.479 396.5 692.139 395.88C691.809 395.25 691.354 394.765 690.774 394.425C690.194 394.085 689.534 393.915 688.794 393.915C688.054 393.915 687.394 394.085 686.814 394.425C686.234 394.765 685.774 395.25 685.434 395.88C685.104 396.5 684.939 397.23 684.939 398.07C684.939 398.9 685.104 399.63 685.434 400.26C685.774 400.89 686.234 401.375 686.814 401.715C687.404 402.055 688.064 402.225 688.794 402.225ZM701.081 397.92C701.461 397.98 701.806 398.135 702.116 398.385C702.436 398.635 702.686 398.945 702.866 399.315C703.056 399.685 703.151 400.08 703.151 400.5C703.151 401.03 703.016 401.51 702.746 401.94C702.476 402.36 702.081 402.695 701.561 402.945C701.051 403.185 700.446 403.305 699.746 403.305H695.846V392.85H699.596C700.306 392.85 700.911 392.97 701.411 393.21C701.911 393.44 702.286 393.755 702.536 394.155C702.786 394.555 702.911 395.005 702.911 395.505C702.911 396.125 702.741 396.64 702.401 397.05C702.071 397.45 701.631 397.74 701.081 397.92ZM697.211 397.365H699.506C700.146 397.365 700.641 397.215 700.991 396.915C701.341 396.615 701.516 396.2 701.516 395.67C701.516 395.14 701.341 394.725 700.991 394.425C700.641 394.125 700.136 393.975 699.476 393.975H697.211V397.365ZM699.626 402.18C700.306 402.18 700.836 402.02 701.216 401.7C701.596 401.38 701.786 400.935 701.786 400.365C701.786 399.785 701.586 399.33 701.186 399C700.786 398.66 700.251 398.49 699.581 398.49H697.211V402.18H699.626ZM716.034 395.91C716.034 396.78 715.734 397.505 715.134 398.085C714.544 398.655 713.639 398.94 712.419 398.94H710.409V403.305H709.044V392.85H712.419C713.599 392.85 714.494 393.135 715.104 393.705C715.724 394.275 716.034 395.01 716.034 395.91ZM712.419 397.815C713.179 397.815 713.739 397.65 714.099 397.32C714.459 396.99 714.639 396.52 714.639 395.91C714.639 394.62 713.899 393.975 712.419 393.975H710.409V397.815H712.419ZM722.471 403.41C721.501 403.41 720.616 403.185 719.816 402.735C719.016 402.275 718.381 401.64 717.911 400.83C717.451 400.01 717.221 399.09 717.221 398.07C717.221 397.05 717.451 396.135 717.911 395.325C718.381 394.505 719.016 393.87 719.816 393.42C720.616 392.96 721.501 392.73 722.471 392.73C723.451 392.73 724.341 392.96 725.141 393.42C725.941 393.87 726.571 394.5 727.031 395.31C727.491 396.12 727.721 397.04 727.721 398.07C727.721 399.1 727.491 400.02 727.031 400.83C726.571 401.64 725.941 402.275 725.141 402.735C724.341 403.185 723.451 403.41 722.471 403.41ZM722.471 402.225C723.201 402.225 723.856 402.055 724.436 401.715C725.026 401.375 725.486 400.89 725.816 400.26C726.156 399.63 726.326 398.9 726.326 398.07C726.326 397.23 726.156 396.5 725.816 395.88C725.486 395.25 725.031 394.765 724.451 394.425C723.871 394.085 723.211 393.915 722.471 393.915C721.731 393.915 721.071 394.085 720.491 394.425C719.911 394.765 719.451 395.25 719.111 395.88C718.781 396.5 718.616 397.23 718.616 398.07C718.616 398.9 718.781 399.63 719.111 400.26C719.451 400.89 719.911 401.375 720.491 401.715C721.081 402.055 721.741 402.225 722.471 402.225ZM732.838 403.41C732.148 403.41 731.528 403.29 730.978 403.05C730.438 402.8 730.013 402.46 729.703 402.03C729.393 401.59 729.233 401.085 729.223 400.515H730.678C730.728 401.005 730.928 401.42 731.278 401.76C731.638 402.09 732.158 402.255 732.838 402.255C733.488 402.255 733.998 402.095 734.368 401.775C734.748 401.445 734.938 401.025 734.938 400.515C734.938 400.115 734.828 399.79 734.608 399.54C734.388 399.29 734.113 399.1 733.783 398.97C733.453 398.84 733.008 398.7 732.448 398.55C731.758 398.37 731.203 398.19 730.783 398.01C730.373 397.83 730.018 397.55 729.718 397.17C729.428 396.78 729.283 396.26 729.283 395.61C729.283 395.04 729.428 394.535 729.718 394.095C730.008 393.655 730.413 393.315 730.933 393.075C731.463 392.835 732.068 392.715 732.748 392.715C733.728 392.715 734.528 392.96 735.148 393.45C735.778 393.94 736.133 394.59 736.213 395.4H734.713C734.663 395 734.453 394.65 734.083 394.35C733.713 394.04 733.223 393.885 732.613 393.885C732.043 393.885 731.578 394.035 731.218 394.335C730.858 394.625 730.678 395.035 730.678 395.565C730.678 395.945 730.783 396.255 730.993 396.495C731.213 396.735 731.478 396.92 731.788 397.05C732.108 397.17 732.553 397.31 733.123 397.47C733.813 397.66 734.368 397.85 734.788 398.04C735.208 398.22 735.568 398.505 735.868 398.895C736.168 399.275 736.318 399.795 736.318 400.455C736.318 400.965 736.183 401.445 735.913 401.895C735.643 402.345 735.243 402.71 734.713 402.99C734.183 403.27 733.558 403.41 732.838 403.41ZM744.762 392.85V393.96H741.912V403.305H740.547V393.96H737.682V392.85H744.762ZM747.807 393.96V397.455H751.617V398.58H747.807V402.18H752.067V403.305H746.442V392.835H752.067V393.96H747.807ZM757.387 392.85C758.527 392.85 759.512 393.065 760.342 393.495C761.182 393.915 761.822 394.52 762.262 395.31C762.712 396.1 762.937 397.03 762.937 398.1C762.937 399.17 762.712 400.1 762.262 400.89C761.822 401.67 761.182 402.27 760.342 402.69C759.512 403.1 758.527 403.305 757.387 403.305H754.132V392.85H757.387ZM757.387 402.18C758.737 402.18 759.767 401.825 760.477 401.115C761.187 400.395 761.542 399.39 761.542 398.1C761.542 396.8 761.182 395.785 760.462 395.055C759.752 394.325 758.727 393.96 757.387 393.96H755.497V402.18H757.387Z" fill="black"/>
<path d="M685.691 355.282H680.471V360.622H675.611V355.282H670.391V350.692H675.611V345.322H680.471V350.692H685.691V355.282ZM688.268 346.342V341.572H696.578V363.472H691.238V346.342H688.268ZM706.118 358.732L702.788 367.342H699.518L701.258 358.732H706.118ZM722.681 345.412L715.151 363.472H709.901L717.521 345.982H708.191V341.602H722.681V345.412ZM724.756 352.222C724.756 348.782 725.416 346.072 726.736 344.092C728.076 342.112 730.226 341.122 733.186 341.122C736.146 341.122 738.286 342.112 739.606 344.092C740.946 346.072 741.616 348.782 741.616 352.222C741.616 355.702 740.946 358.432 739.606 360.412C738.286 362.392 736.146 363.382 733.186 363.382C730.226 363.382 728.076 362.392 726.736 360.412C725.416 358.432 724.756 355.702 724.756 352.222ZM736.576 352.222C736.576 350.202 736.356 348.652 735.916 347.572C735.476 346.472 734.566 345.922 733.186 345.922C731.806 345.922 730.896 346.472 730.456 347.572C730.016 348.652 729.796 350.202 729.796 352.222C729.796 353.582 729.876 354.712 730.036 355.612C730.196 356.492 730.516 357.212 730.996 357.772C731.496 358.312 732.226 358.582 733.186 358.582C734.146 358.582 734.866 358.312 735.346 357.772C735.846 357.212 736.176 356.492 736.336 355.612C736.496 354.712 736.576 353.582 736.576 352.222ZM744.326 352.222C744.326 348.782 744.986 346.072 746.306 344.092C747.646 342.112 749.796 341.122 752.756 341.122C755.716 341.122 757.856 342.112 759.176 344.092C760.516 346.072 761.186 348.782 761.186 352.222C761.186 355.702 760.516 358.432 759.176 360.412C757.856 362.392 755.716 363.382 752.756 363.382C749.796 363.382 747.646 362.392 746.306 360.412C744.986 358.432 744.326 355.702 744.326 352.222ZM756.146 352.222C756.146 350.202 755.926 348.652 755.486 347.572C755.046 346.472 754.136 345.922 752.756 345.922C751.376 345.922 750.466 346.472 750.026 347.572C749.586 348.652 749.366 350.202 749.366 352.222C749.366 353.582 749.446 354.712 749.606 355.612C749.766 356.492 750.086 357.212 750.566 357.772C751.066 358.312 751.796 358.582 752.756 358.582C753.716 358.582 754.436 358.312 754.916 357.772C755.416 357.212 755.746 356.492 755.906 355.612C756.066 354.712 756.146 353.582 756.146 352.222Z" fill="black"/>
<defs>
<linearGradient id="paint0_linear_2038_4689" x1="185.319" y1="156" x2="185.319" y2="254.639" gradientUnits="userSpaceOnUse">
<stop stop-color="#0F2F44" stop-opacity="0.75"/>
<stop offset="1" stop-color="#0F2F44"/>
</linearGradient>
</defs>
</svg>
